<svg width="24" height="24" viewBox="0 0 24 24" fill="none" xmlns="http://www.w3.org/2000/svg">
<path d="M21.9701 18.3304C21.9701 18.6904 21.8901 19.0604 21.7201 19.4204C21.5501 19.7804 21.3301 20.1204 21.0401 20.4404C20.5501 20.9804 20.0101 21.3704 19.4001 21.6204C18.8001 21.8704 18.1501 22.0004 17.4501 22.0004C16.4301 22.0004 15.3401 21.7604 14.1901 21.2704C13.0401 20.7804 11.8901 20.1204 10.7501 19.2904C9.60006 18.4504 8.51006 17.5204 7.47006 16.4904C6.44006 15.4504 5.51006 14.3604 4.68006 13.2204C3.86006 12.0804 3.20006 10.9404 2.72006 9.81037C2.24006 8.67037 2.00006 7.58037 2.00006 6.54037C2.00006 5.86037 2.12006 5.21037 2.36006 4.61037C2.60006 4.00037 2.98006 3.44037 3.51006 2.94037C4.15006 2.31037 4.85006 2.00037 5.59006 2.00037C5.87006 2.00037 6.15006 2.06037 6.40006 2.18037C6.66006 2.30037 6.89006 2.48037 7.07006 2.74037L9.39006 6.01037C9.57006 6.26037 9.70006 6.49037 9.79006 6.71037C9.88006 6.92037 9.93006 7.13037 9.93006 7.32037C9.93006 7.56037 9.86006 7.80037 9.72006 8.03037C9.59006 8.26037 9.40006 8.50037 9.16006 8.74037L8.40006 9.53037C8.29006 9.64037 8.24006 9.77037 8.24006 9.93037C8.24006 10.0104 8.25006 10.0804 8.27006 10.1604C8.30006 10.2404 8.33006 10.3004 8.35006 10.3604C8.53006 10.6904 8.84006 11.1204 9.28006 11.6404C9.73006 12.1604 10.2101 12.6904 10.7301 13.2204C11.2701 13.7504 11.7901 14.2404 12.3201 14.6904C12.8401 15.1304 13.2701 15.4304 13.6101 15.6104C13.6601 15.6304 13.7201 15.6604 13.7901 15.6904C13.8701 15.7204 13.9501 15.7304 14.0401 15.7304C14.2101 15.7304 14.3401 15.6704 14.4501 15.5604L15.2101 14.8104C15.4601 14.5604 15.7001 14.3704 15.9301 14.2504C16.1601 14.1104 16.3901 14.0404 16.6401 14.0404C16.8301 14.0404 17.0301 14.0804 17.2501 14.1704C17.4701 14.2604 17.7001 14.3904 17.9501 14.5604L21.2601 16.9104C21.5201 17.0904 21.7001 17.3004 21.8101 17.5504C21.9101 17.8004 21.9701 18.0504 21.9701 18.3304Z" stroke="#000929" stroke-width="2" stroke-miterlimit="10"/>
</svg>
