<svg width="24" height="24" viewBox="0 0 24 24" fill="none" xmlns="http://www.w3.org/2000/svg">
<path d="M18 9.59991C18.731 9.59993 19.4447 9.37743 20.0461 8.96198C20.6476 8.54654 21.1083 7.95785 21.3671 7.27419C21.6258 6.59053 21.6703 5.84431 21.4946 5.13475C21.319 4.42518 20.9314 3.78591 20.3836 3.30194C19.8358 2.81797 19.1536 2.51224 18.4278 2.4254C17.702 2.33856 16.967 2.47473 16.3204 2.81579C15.6739 3.15686 15.1465 3.68667 14.8084 4.33475C14.4703 4.98284 14.3375 5.7185 14.4276 6.44391L8.49963 9.40791C7.9911 8.91753 7.34954 8.58761 6.65486 8.45924C5.96017 8.33087 5.24307 8.40973 4.59289 8.68599C3.9427 8.96225 3.38816 9.4237 2.99835 10.0129C2.60855 10.602 2.4007 11.2929 2.4007 11.9993C2.4007 12.7058 2.60855 13.3966 2.99835 13.9857C3.38816 14.5749 3.9427 15.0364 4.59289 15.3126C5.24307 15.5889 5.96017 15.6677 6.65486 15.5394C7.34954 15.411 7.9911 15.0811 8.49963 14.5907L14.4276 17.5547C14.3226 18.3974 14.5189 19.2501 14.9818 19.962C15.4446 20.674 16.1443 21.1994 16.9571 21.4455C17.7698 21.6915 18.6434 21.6422 19.4234 21.3065C20.2034 20.9707 20.8396 20.37 21.2196 19.6105C21.5995 18.8511 21.6988 17.9817 21.4997 17.1562C21.3007 16.3306 20.8163 15.602 20.132 15.0991C19.4478 14.5962 18.6077 14.3513 17.7604 14.4078C16.9131 14.4643 16.113 14.8186 15.5016 15.4079L9.57362 12.4439C9.60994 12.149 9.60994 11.8508 9.57362 11.5559L15.5016 8.59191C16.1472 9.21591 17.028 9.59991 18 9.59991Z" fill="#000929"/>
</svg>
